<svg width="230" height="116" viewBox="0 0 230 116" fill="none" xmlns="http://www.w3.org/2000/svg">
<circle cx="3.5" cy="3.5" r="3.5" fill="#C4C4C4" fill-opacity="0.6"/>
<circle cx="28.5" cy="3.5" r="3.5" fill="#C4C4C4" fill-opacity="0.6"/>
<circle cx="53.5" cy="3.5" r="3.5" fill="#C4C4C4" fill-opacity="0.6"/>
<circle cx="78.5" cy="3.5" r="3.5" fill="#C4C4C4" fill-opacity="0.6"/>
<circle cx="103.5" cy="3.5" r="3.5" fill="#C4C4C4" fill-opacity="0.6"/>
<circle cx="128.5" cy="3.5" r="3.5" fill="#C4C4C4" fill-opacity="0.6"/>
<circle cx="153.5" cy="3.5" r="3.5" fill="#C4C4C4" fill-opacity="0.6"/>
<circle cx="3.5" cy="23.5" r="3.5" fill="#C4C4C4" fill-opacity="0.6"/>
<circle cx="28.5" cy="23.5" r="3.5" fill="#C4C4C4" fill-opacity="0.6"/>
<circle cx="53.5" cy="23.5" r="3.5" fill="#C4C4C4" fill-opacity="0.6"/>
<circle cx="78.5" cy="23.5" r="3.5" fill="#C4C4C4" fill-opacity="0.6"/>
<circle cx="103.5" cy="23.5" r="3.5" fill="#C4C4C4" fill-opacity="0.6"/>
<circle cx="128.5" cy="23.5" r="3.5" fill="#C4C4C4" fill-opacity="0.6"/>
<circle cx="153.5" cy="23.5" r="3.5" fill="#C4C4C4" fill-opacity="0.6"/>
<circle cx="3.5" cy="43.5" r="3.5" fill="#C4C4C4" fill-opacity="0.6"/>
<circle cx="28.5" cy="43.5" r="3.5" fill="#C4C4C4" fill-opacity="0.6"/>
<circle cx="53.5" cy="43.5" r="3.5" fill="#C4C4C4" fill-opacity="0.6"/>
<circle cx="78.5" cy="43.5" r="3.5" fill="#C4C4C4" fill-opacity="0.6"/>
<circle cx="103.5" cy="43.5" r="3.5" fill="#C4C4C4" fill-opacity="0.6"/>
<circle cx="128.5" cy="43.5" r="3.5" fill="#C4C4C4" fill-opacity="0.6"/>
<circle cx="153.5" cy="43.5" r="3.5" fill="#C4C4C4" fill-opacity="0.6"/>
<circle cx="3.5" cy="63.5" r="3.5" fill="#C4C4C4" fill-opacity="0.6"/>
<circle cx="28.5" cy="63.5" r="3.5" fill="#C4C4C4" fill-opacity="0.6"/>
<circle cx="53.5" cy="63.5" r="3.5" fill="#C4C4C4" fill-opacity="0.6"/>
<circle cx="78.5" cy="63.5" r="3.5" fill="#C4C4C4" fill-opacity="0.6"/>
<circle cx="103.5" cy="63.5" r="3.5" fill="#C4C4C4" fill-opacity="0.6"/>
<circle cx="128.5" cy="63.5" r="3.5" fill="#C4C4C4" fill-opacity="0.6"/>
<circle cx="153.5" cy="63.5" r="3.5" fill="#C4C4C4" fill-opacity="0.6"/>
<circle cx="3.5" cy="83.5" r="3.5" fill="#C4C4C4" fill-opacity="0.6"/>
<circle cx="28.5" cy="83.5" r="3.5" fill="#C4C4C4" fill-opacity="0.6"/>
<circle cx="53.5" cy="83.5" r="3.5" fill="#C4C4C4" fill-opacity="0.6"/>
<circle cx="78.5" cy="83.5" r="3.5" fill="#C4C4C4" fill-opacity="0.6"/>
<circle cx="103.5" cy="83.5" r="3.5" fill="#C4C4C4" fill-opacity="0.6"/>
<circle cx="128.5" cy="83.5" r="3.5" fill="#C4C4C4" fill-opacity="0.6"/>
<circle cx="153.5" cy="83.5" r="3.5" fill="#C4C4C4" fill-opacity="0.6"/>
<g filter="url(#filter0_bd)">
<rect x="65" y="15" width="161" height="97" rx="5" fill="#E8E8E8" fill-opacity="0.31"/>
</g>
<defs>
<filter id="filter0_bd" x="59" y="9" width="173" height="109" filterUnits="userSpaceOnUse" color-interpolation-filters="sRGB">
<feFlood flood-opacity="0" result="BackgroundImageFix"/>
<feGaussianBlur in="BackgroundImage" stdDeviation="3"/>
<feComposite in2="SourceAlpha" operator="in" result="effect1_backgroundBlur"/>
<feColorMatrix in="SourceAlpha" type="matrix" values="0 0 0 0 0 0 0 0 0 0 0 0 0 0 0 0 0 0 127 0"/>
<feOffset/>
<feGaussianBlur stdDeviation="2"/>
<feColorMatrix type="matrix" values="0 0 0 0 0.95 0 0 0 0 0.95 0 0 0 0 0.95 0 0 0 0.25 0"/>
<feBlend mode="normal" in2="effect1_backgroundBlur" result="effect2_dropShadow"/>
<feBlend mode="normal" in="SourceGraphic" in2="effect2_dropShadow" result="shape"/>
</filter>
</defs>
</svg>
