<svg width="112" height="118" viewBox="0 0 112 118" fill="none" xmlns="http://www.w3.org/2000/svg">
<path d="M61.9446 108.439C59.2057 112.844 52.7943 112.844 50.0554 108.439L14.153 50.6961C11.2538 46.0332 14.6069 40 20.0977 40L91.9023 40C97.3931 40 100.746 46.0332 97.847 50.6961L61.9446 108.439Z" fill="#2263CB"/>
<path d="M61.8384 89.617C59.0491 92.809 54.0854 92.809 51.2962 89.617L18.2115 51.7552C14.2556 47.2282 17.4707 40.1492 23.4826 40.1492L89.6519 40.1492C95.6639 40.1492 98.8789 47.2282 94.923 51.7552L61.8384 89.617Z" fill="white"/>
<path d="M59.3448 65.0621C58.1438 66.5669 55.8562 66.5669 54.6552 65.0621L20.1847 21.8714C18.6165 19.9065 20.0155 17 22.5294 17L91.4706 17C93.9845 17 95.3835 19.9065 93.8153 21.8714L59.3448 65.0621Z" fill="#0054B6"/>
<path d="M59.4725 51.6061C58.3348 52.6204 56.6174 52.6204 55.4797 51.6061L22.6496 22.3368C20.5921 20.5026 21.8896 17.0976 24.646 17.0976L90.3062 17.0976C93.0626 17.0976 94.36 20.5026 92.3026 22.3368L59.4725 51.6061Z" fill="white"/>
</svg>
