<svg width="79" height="88" viewBox="0 0 79 88" fill="none" xmlns="http://www.w3.org/2000/svg">
<path fill-rule="evenodd" clip-rule="evenodd" d="M73.9998 52.6602C80.6665 48.8112 80.6665 39.1887 73.9998 35.3397L50.9531 22.0337V12.4219C50.3906 12.4219 49.875 12.4688 49.4063 12.5625C48 12.9375 47.2969 14.4844 47.2969 17.2031C44.2569 15.3527 40.6114 14.1545 36.3602 13.6085L15.4998 1.56475C8.83315 -2.28426 0.499817 2.52701 0.499817 10.225V77.775C0.499817 85.473 8.83317 90.2842 15.4998 86.4352L32.9932 76.3354C36.0763 76.1521 38.9223 75.6133 41.5313 74.7188C47.3424 72.7592 51.0594 69.5089 52.6821 64.9681L73.9998 52.6602ZM52.6821 64.9681C53.3107 63.2089 53.625 61.256 53.625 59.1094C53.625 54.8906 52.2188 51.1875 49.4063 48C46.9688 45.2813 42 42.3281 34.5 39.1406C31.7813 38.0156 29.8125 37.1719 28.5938 36.6094C22.875 33.7031 20.0156 30.2344 20.0156 26.2031C20.0156 25.0781 20.2031 24 20.5781 22.9688C22.1719 18.9375 26.25 16.9219 32.8125 16.9219C41.9063 17.0156 46.6406 21.375 47.0156 30H50.9531V22.0337L36.3602 13.6085C34.5806 13.3799 32.6949 13.2656 30.7031 13.2656C26.5781 13.2656 22.7813 13.875 19.3125 15.0938C11.625 17.8125 7.78126 22.6875 7.78126 29.7188C7.78126 33.75 9.09376 37.2656 11.7188 40.2656C14.1563 42.9844 19.0781 45.9375 26.4844 49.125C29.2969 50.3438 31.3125 51.2813 32.5313 51.9375C38.4375 54.9375 41.3906 58.5469 41.3906 62.7656C41.3906 64.0781 41.1094 65.3438 40.5469 66.5625C38.7656 70.5938 34.6875 72.6094 28.3125 72.6094C17.7188 72.5156 12.3281 66.5156 12.1406 54.6094H7.78126V75.9844C8.53126 75.9844 9.18751 75.9375 9.75001 75.8438C10.9688 75.4688 11.5781 74.0625 11.5781 71.625C16.8281 74.7188 23.1563 76.3125 30.5625 76.4063C31.3885 76.4063 32.1987 76.3826 32.9932 76.3354L52.6821 64.9681Z" fill="#2263CB"/>
</svg>
