<svg width="140" height="52" viewBox="0 0 140 52" fill="none" xmlns="http://www.w3.org/2000/svg">
<path d="M9.46875 38.9375C12.3021 38.9375 14.1146 38.0417 14.9062 36.25C15.1562 35.7083 15.2812 35.1458 15.2812 34.5625C15.2812 32.6875 13.9688 31.0833 11.3438 29.75C10.8021 29.4583 9.90625 29.0417 8.65625 28.5C5.36458 27.0833 3.17708 25.7708 2.09375 24.5625C0.927083 23.2292 0.34375 21.6667 0.34375 19.875C0.34375 16.75 2.05208 14.5833 5.46875 13.375C7.01042 12.8333 8.69792 12.5625 10.5312 12.5625C13.5312 12.5625 15.9896 13.1458 17.9062 14.3125C17.9062 13.1042 18.2188 12.4167 18.8438 12.25C19.0521 12.2083 19.2812 12.1875 19.5312 12.1875V20H17.7812C17.6146 16.1667 15.5104 14.2292 11.4688 14.1875C8.55208 14.1875 6.73958 15.0833 6.03125 16.875C5.86458 17.3333 5.78125 17.8125 5.78125 18.3125C5.78125 20.1042 7.05208 21.6458 9.59375 22.9375C10.1354 23.1875 11.0104 23.5625 12.2188 24.0625C15.5521 25.4792 17.7604 26.7917 18.8438 28C20.0938 29.4167 20.7188 31.0625 20.7188 32.9375C20.7188 36.3542 18.9271 38.6667 15.3438 39.875C13.8854 40.375 12.2604 40.625 10.4688 40.625C7.17708 40.5833 4.36458 39.875 2.03125 38.5C2.03125 39.5833 1.76042 40.2083 1.21875 40.375C0.96875 40.4167 0.677083 40.4375 0.34375 40.4375V30.9375H2.28125C2.36458 36.2292 4.76042 38.8958 9.46875 38.9375ZM37.1562 38.4375H34.8438L34.9062 23.375C35.1979 20 36.5312 17.625 38.9062 16.25C39.7812 15.75 40.6771 15.5 41.5938 15.5C44.0938 15.5 45.6979 16.75 46.4062 19.25C46.6146 20.0833 46.7188 20.9583 46.7188 21.875V34.875C46.7188 36.7083 46.2188 37.8125 45.2188 38.1875C44.6354 38.3542 43.8229 38.4375 42.7812 38.4375V40H57.0312C57.0312 39.0833 56.7604 38.5833 56.2188 38.5C56.0104 38.4583 55.7604 38.4375 55.4688 38.4375H52.7812V22.6875C52.7812 18.2292 51.2396 15.1875 48.1562 13.5625C46.9479 12.8958 45.6146 12.5625 44.1562 12.5625C41.0729 12.5625 38.4896 13.7917 36.4062 16.25C35.7396 17.0833 35.1979 17.9792 34.7812 18.9375L34.4688 13.3125H24.5938V14.875H28.8438V34.875C28.8438 36.75 28.2396 37.8542 27.0312 38.1875C26.4479 38.3542 25.6354 38.4375 24.5938 38.4375V40H38.7188C38.7188 39.0833 38.4479 38.5833 37.9062 38.5C37.6979 38.4583 37.4479 38.4375 37.1562 38.4375ZM82.7188 40.625C85.6354 40.625 87.4271 39.3125 88.0938 36.6875C88.3021 35.9375 88.4271 35.0833 88.4688 34.125L86.8438 34.0625C86.5521 37.0208 85.7604 38.5208 84.4688 38.5625C83.4688 38.4792 82.9479 37.4167 82.9062 35.375V22.25C82.8229 15.8333 79.3021 12.6042 72.3438 12.5625C67.3021 12.5625 64.0104 13.6875 62.4688 15.9375C62.0104 16.6458 61.7812 17.3542 61.7812 18.0625C61.7812 19.3958 62.4062 20.25 63.6562 20.625C63.9896 20.7083 64.3229 20.75 64.6562 20.75C65.9479 20.75 66.8438 20.0625 67.3438 18.6875C67.4271 18.4792 67.5312 18.1667 67.6562 17.75C68.1979 16.0833 68.8646 15.0208 69.6562 14.5625C70.2396 14.2708 70.9479 14.125 71.7812 14.125C75.1562 14.2083 76.8646 16.3958 76.9062 20.6875V24.6875C66.9062 24.8125 61.3854 27.0833 60.3438 31.5C60.2188 32.0833 60.1562 32.6875 60.1562 33.3125C60.1562 36.6458 61.5938 38.875 64.4688 40C65.5521 40.4167 66.7396 40.625 68.0312 40.625C71.1979 40.625 73.7396 39.5417 75.6562 37.375C76.2812 36.625 76.7604 35.8333 77.0938 35C77.7188 38.7083 79.5938 40.5833 82.7188 40.625ZM70.5938 38.0625C68.3021 38.0625 66.9479 36.7083 66.5312 34C66.4479 33.5 66.4062 32.9583 66.4062 32.375C66.4062 29.5417 67.9062 27.75 70.9062 27C72.4479 26.625 74.4479 26.4167 76.9062 26.375V31.8125C76.1979 34.7292 74.7396 36.6667 72.5312 37.625C71.8646 37.9167 71.2188 38.0625 70.5938 38.0625ZM100.469 50.3125V37.5C102.427 39.5 105.01 40.5417 108.219 40.625C112.094 40.625 115.281 39.1667 117.781 36.25C120.073 33.5417 121.219 30.1042 121.219 25.9375C121.219 20.9792 119.802 17.2708 116.969 14.8125C115.219 13.3125 113.094 12.5625 110.594 12.5625C106.885 12.5625 104.01 13.9583 101.969 16.75C101.302 17.6667 100.781 18.6875 100.406 19.8125L100.094 13.3125H90.2812V14.875H94.4688V46.75C94.4688 48.5833 93.9062 49.6875 92.7812 50.0625C92.1979 50.2292 91.3646 50.3125 90.2812 50.3125V51.875H105.969C105.969 50.9583 105.698 50.4583 105.156 50.375C104.948 50.3333 104.698 50.3125 104.406 50.3125H100.469ZM108.031 15.25C111.698 15.25 113.823 18 114.406 23.5C114.531 24.5 114.594 25.5625 114.594 26.6875C114.594 33.1875 112.99 37.125 109.781 38.5C109.031 38.8333 108.24 39 107.406 39C104.656 39 102.677 37.4792 101.469 34.4375C100.76 32.6042 100.406 30.4167 100.406 27.875C100.406 22.625 101.677 18.8958 104.219 16.6875C105.385 15.7292 106.656 15.25 108.031 15.25ZM138.406 38.4375H135.594V13.3125H125.156V14.875H129.594V34.875C129.594 36.75 128.927 37.875 127.594 38.25C127.01 38.375 126.198 38.4375 125.156 38.4375V40H139.969C139.969 39.0833 139.698 38.5833 139.156 38.5C138.948 38.4583 138.698 38.4375 138.406 38.4375ZM136.281 4.5625C136.281 2.97917 135.573 1.8125 134.156 1.0625C133.573 0.770833 132.969 0.625 132.344 0.625C130.76 0.625 129.615 1.33333 128.906 2.75C128.615 3.33333 128.469 3.9375 128.469 4.5625C128.469 6.22917 129.198 7.39583 130.656 8.0625C131.198 8.3125 131.76 8.4375 132.344 8.4375C134.01 8.4375 135.198 7.72917 135.906 6.3125C136.156 5.77083 136.281 5.1875 136.281 4.5625Z" fill="#1F5CC4"/>
</svg>
