<svg xmlns="http://www.w3.org/2000/svg" xmlns:xlink="http://www.w3.org/1999/xlink" viewBox="0 0 222.34 230.85"><defs><style>.cls-1,.cls-2,.cls-3{fill:#f8359e;}.cls-1,.cls-21{opacity:0.8;}.cls-12,.cls-3,.cls-8{opacity:0.4;}.cls-4,.cls-6{fill:#172f78;}.cls-5,.cls-7,.cls-8{fill:#03a7d3;}.cls-6{opacity:0.6;}.cls-7{opacity:0.7;}.cls-9{fill:url(#Áåçûìÿííûé_ãðàäèåíò_354);}.cls-10{fill:url(#Áåçûìÿííûé_ãðàäèåíò_346);}.cls-11{fill:#fff;}.cls-12{fill:#06033e;}.cls-13{fill:url(#Áåçûìÿííûé_ãðàäèåíò_354-2);}.cls-14{fill:url(#Áåçûìÿííûé_ãðàäèåíò_346-2);}.cls-15{fill:url(#Áåçûìÿííûé_ãðàäèåíò_354-3);}.cls-16{fill:url(#Áåçûìÿííûé_ãðàäèåíò_346-3);}.cls-17{fill:url(#Áåçûìÿííûé_ãðàäèåíò_67);}.cls-18{fill:#8b1e64;}.cls-19{opacity:0.3;}.cls-20{opacity:0.5;}.cls-21{fill:#01c8ef;}</style><linearGradient id="Áåçûìÿííûé_ãðàäèåíò_354" x1="53.23" y1="159.32" x2="125.05" y2="159.32" gradientUnits="userSpaceOnUse"><stop offset="0" stop-color="#01c8ef"/><stop offset="0.13" stop-color="#04b1dd"/><stop offset="0.55" stop-color="#0e6ba7"/><stop offset="0.85" stop-color="#154085"/><stop offset="1" stop-color="#172f78"/></linearGradient><radialGradient id="Áåçûìÿííûé_ãðàäèåíò_346" cx="40.49" cy="105.46" r="160.39" gradientUnits="userSpaceOnUse"><stop offset="0" stop-color="#01c8ef"/><stop offset="0.14" stop-color="#03bae4"/><stop offset="0.4" stop-color="#0895c8"/><stop offset="0.76" stop-color="#115a9a"/><stop offset="1" stop-color="#172f78"/></radialGradient><linearGradient id="Áåçûìÿííûé_ãðàäèåíò_354-2" x1="53.23" y1="121.18" x2="125.05" y2="121.18" xlink:href="#Áåçûìÿííûé_ãðàäèåíò_354"/><radialGradient id="Áåçûìÿííûé_ãðàäèåíò_346-2" cx="40.49" cy="67.32" r="160.39" xlink:href="#Áåçûìÿííûé_ãðàäèåíò_346"/><linearGradient id="Áåçûìÿííûé_ãðàäèåíò_354-3" x1="53.23" y1="83.04" x2="125.05" y2="83.04" xlink:href="#Áåçûìÿííûé_ãðàäèåíò_354"/><radialGradient id="Áåçûìÿííûé_ãðàäèåíò_346-3" cx="40.49" cy="29.19" r="160.39" xlink:href="#Áåçûìÿííûé_ãðàäèåíò_346"/><radialGradient id="Áåçûìÿííûé_ãðàäèåíò_67" cx="54.65" cy="38.85" r="110.27" gradientUnits="userSpaceOnUse"><stop offset="0" stop-color="#f9636b"/><stop offset="1" stop-color="#b6246e"/></radialGradient></defs><title>Asset 1</title><g id="Layer_2" data-name="Layer 2"><g id="Ñëîé_1" data-name="Ñëîé 1"><rect class="cls-1" x="133.82" y="13.78" width="2.01" height="2.01"/><rect class="cls-2" x="138.09" y="13.78" width="2.01" height="2.01"/><rect class="cls-3" x="142.36" y="13.78" width="2.01" height="2.01"/><rect class="cls-2" x="146.63" y="13.78" width="2.01" height="2.01"/><rect class="cls-2" x="160.22" y="13.78" width="2.01" height="2.01"/><rect class="cls-1" x="146.63" y="28.09" width="2.01" height="2.01"/><rect class="cls-2" x="146.63" y="37.04" width="2.01" height="2.01" transform="translate(295.27 76.09) rotate(180)"/><rect class="cls-3" x="146.63" y="41.11" width="2.01" height="2.01" transform="translate(295.27 84.22) rotate(180)"/><rect class="cls-2" x="146.63" y="45.17" width="2.01" height="2.01" transform="translate(295.27 92.35) rotate(180)"/><rect class="cls-1" x="156.41" y="39.61" width="2.01" height="2.01" transform="translate(314.83 81.24) rotate(180)"/><rect class="cls-2" x="159.81" y="36.53" width="2.01" height="2.01" transform="translate(321.62 75.06) rotate(180)"/><rect class="cls-3" x="164.49" y="13.78" width="2.01" height="2.01"/><rect class="cls-3" x="81.87" y="44.79" width="2.01" height="2.01" transform="translate(165.75 91.58) rotate(180)"/><rect class="cls-2" x="77.6" y="44.79" width="2.01" height="2.01" transform="translate(157.21 91.58) rotate(180)"/><rect class="cls-2" x="63.01" y="23.62" width="2.01" height="2.01" transform="translate(128.03 49.24) rotate(180)"/><rect class="cls-2" x="63.01" y="19.46" width="2.01" height="2.01" transform="translate(128.03 40.94) rotate(180)"/><rect class="cls-2" x="63.01" y="15.31" width="2.01" height="2.01" transform="translate(128.03 32.63) rotate(180)"/><rect class="cls-2" x="64.01" y="44.79" width="2.01" height="2.01" transform="translate(130.03 91.58) rotate(180)"/><rect class="cls-1" x="77.6" y="30.48" width="2.01" height="2.01" transform="translate(157.21 62.96) rotate(180)"/><rect class="cls-2" x="77.6" y="21.52" width="2.01" height="2.01"/><rect class="cls-3" x="77.6" y="17.46" width="2.01" height="2.01"/><rect class="cls-2" x="77.6" y="13.39" width="2.01" height="2.01"/><rect class="cls-3" x="59.74" y="44.79" width="2.01" height="2.01" transform="translate(121.49 91.58) rotate(180)"/><rect class="cls-4" x="15.52" y="172.7" width="0.47" height="9.16"/><rect class="cls-5" x="15.52" y="184.01" width="0.47" height="2.94"/><rect class="cls-5" x="193.24" y="9.14" width="0.47" height="9.16"/><rect class="cls-4" x="193.24" y="20.41" width="0.47" height="2.62"/><rect class="cls-4" x="193.24" y="25.22" width="0.47" height="2.62"/><rect class="cls-4" x="212.18" y="148.11" width="0.47" height="9.16"/><rect class="cls-5" x="212.18" y="159.37" width="0.47" height="2.62"/><rect class="cls-5" x="212.18" y="164.18" width="0.47" height="2.62"/><rect class="cls-5" x="212.18" y="168.99" width="0.47" height="7.43"/><rect class="cls-4" x="10.98" y="135.53" width="0.47" height="2.94"/><rect class="cls-4" x="10.98" y="112.21" width="0.47" height="9.29"/><rect class="cls-4" x="30.98" y="76.73" width="0.47" height="2.94"/><rect class="cls-5" x="30.98" y="65.42" width="0.47" height="9.16"/><rect class="cls-4" x="30.98" y="53.41" width="0.47" height="9.29"/><rect class="cls-4" x="30.98" y="39.61" width="0.47" height="9.29"/><path class="cls-6" d="M53,30.91c17.44-5.06,38.07-7.91,60.09-7.73q4.36,0,8.63.23c19.34,1.77,26.21,22.19,14.56,31.12-5.35,4.1-11.8,4.06-14.56,4s-5.72-.2-8.63-.23C91.08,58.16,70.45,61,53,66.07,35.4,70.36,34.36,52.46,40.52,41.51A22.25,22.25,0,0,1,53,30.91Z"/><path class="cls-5" d="M48.07,67.09c-4.66,0-7.3-2-8.78-3.94-4.24-5.59-2.7-15.42.9-21.83A22.62,22.62,0,0,1,52.9,30.55h0C71,25.31,91.78,22.6,113.11,22.8c2.88,0,5.79.1,8.64.23,9.72.89,17.53,6.81,19.93,15.08a15.23,15.23,0,0,1-5.16,16.71c-5.45,4.18-12,4.15-14.79,4.12s-5.76-.2-8.63-.23c-21.25-.16-42,2.49-60,7.71A21.39,21.39,0,0,1,48.07,67.09Zm5.06-35.82A21.88,21.88,0,0,0,40.85,41.7c-3.49,6.2-5,15.66-1,21,2.59,3.41,7.09,4.45,13,3,18-5.24,38.87-7.93,60.18-7.74,2.88,0,5.79.1,8.64.23,2.7,0,9.06.06,14.31-4A14.49,14.49,0,0,0,141,38.32c-2.31-8-9.86-13.68-19.25-14.54-2.83-.12-5.73-.2-8.6-.23C91.85,23.4,71.11,26,53.12,31.27Z"/><path class="cls-5" d="M110.18,202.57a12.89,12.89,0,0,1-6.31-1.51l-42.4-24.48c-1.76-1-2.73-2.39-2.73-3.87s1-2.85,2.73-3.87l42.17-24.52a14,14,0,0,1,12.61,0l42.4,24.48c1.76,1,2.73,2.39,2.73,3.87s-1,2.85-2.73,3.87l-42.17,24.52A12.9,12.9,0,0,1,110.18,202.57Zm-.22-59A12.08,12.08,0,0,0,104,145L61.87,169.53c-1.51.87-2.33,2-2.33,3.19s.83,2.32,2.33,3.18l42.4,24.48a13.08,13.08,0,0,0,11.82,0l42.17-24.52c1.51-.87,2.33-2,2.33-3.19s-.83-2.32-2.33-3.19L115.87,145A12.08,12.08,0,0,0,110,143.6Z"/><path class="cls-7" d="M110.18,216.71a12.89,12.89,0,0,1-6.31-1.51l-42.4-24.48c-1.76-1-2.73-2.39-2.73-3.87s1-2.85,2.73-3.87l42.17-24.52a14,14,0,0,1,12.61,0l42.4,24.48c1.76,1,2.73,2.39,2.73,3.87s-1,2.85-2.73,3.87L116.49,215.2A12.9,12.9,0,0,1,110.18,216.71Zm-.22-59a12.08,12.08,0,0,0-5.91,1.41L61.87,183.67c-1.51.87-2.33,2-2.33,3.19s.83,2.32,2.33,3.19l42.4,24.48a13.08,13.08,0,0,0,11.82,0L158.27,190c1.51-.87,2.33-2,2.33-3.19s-.83-2.32-2.33-3.18l-42.4-24.48A12.08,12.08,0,0,0,110,157.74Z"/><path class="cls-8" d="M110.18,230.85a12.9,12.9,0,0,1-6.31-1.5l-42.4-24.48c-1.76-1-2.73-2.39-2.73-3.87s1-2.85,2.73-3.87l42.17-24.52a14,14,0,0,1,12.61,0l42.4,24.48c1.76,1,2.73,2.39,2.73,3.87s-1,2.85-2.73,3.87l-42.17,24.52A12.9,12.9,0,0,1,110.18,230.85Zm-.22-59a12.08,12.08,0,0,0-5.91,1.41L61.87,197.81c-1.51.87-2.33,2-2.33,3.19s.83,2.32,2.33,3.19l42.4,24.48a13.09,13.09,0,0,0,11.82,0l42.17-24.52c1.51-.87,2.33-2,2.33-3.19s-.83-2.32-2.33-3.18l-42.4-24.48A12.08,12.08,0,0,0,110,171.88Z"/><path class="cls-9" d="M161.2,159.29h0V139l-25.69,3.43-19.23-11.11a13.5,13.5,0,0,0-12.22,0l-3,1.9-41.71,5.56v20.7h0a4.34,4.34,0,0,0,2.51,3.42l42.4,24.48a13.5,13.5,0,0,0,12.22,0l42.17-24.52a4.34,4.34,0,0,0,2.51-3.4h0Z"/><path class="cls-10" d="M158.67,135.29l-42.4-24.48a13.5,13.5,0,0,0-12.22,0L61.88,135.33c-3.37,1.95-3.37,5.11,0,7.05l42.4,24.48a13.5,13.5,0,0,0,12.22,0l42.17-24.52C162,140.39,162,137.23,158.67,135.29Z"/><path class="cls-11" d="M158.67,141.11,116.5,165.63a13.5,13.5,0,0,1-12.22,0l-42.4-24.48a4.68,4.68,0,0,1-2.46-2.91c-.32,1.47.5,3,2.46,4.14l42.4,24.48a13.5,13.5,0,0,0,12.22,0l42.17-24.52c2-1.13,2.77-2.67,2.46-4.14A4.68,4.68,0,0,1,158.67,141.11Z"/><polygon class="cls-11" points="122.2 172.29 120.19 173.45 120.19 171.13 122.2 169.97 122.2 172.29"/><polygon class="cls-11" points="126.4 169.87 124.39 171.02 124.39 168.71 126.4 167.55 126.4 169.87"/><polygon class="cls-11" points="130.6 167.44 128.59 168.6 128.59 166.28 130.6 165.12 130.6 167.44"/><polygon class="cls-11" points="127.16 174.12 125.16 175.28 125.16 172.96 127.16 171.8 127.16 174.12"/><polygon class="cls-11" points="130.86 171.98 128.85 173.14 128.85 170.82 130.86 169.67 130.86 171.98"/><polygon class="cls-11" points="144.06 159.66 142.06 160.82 142.06 158.5 144.06 157.35 144.06 159.66"/><polygon class="cls-11" points="155.63 152.99 153.63 154.15 153.63 151.83 155.63 150.67 155.63 152.99"/><polygon class="cls-11" points="134.8 165.02 132.79 166.18 132.79 163.86 134.8 162.7 134.8 165.02"/><path class="cls-12" d="M107.88,156.52,79.35,140.05c-1.16-.67-1-1.84.32-2.61l27.87-16.09a5,5,0,0,1,4.52-.19l28.52,16.47c1.16.67,1,1.84-.32,2.61L112.4,156.33A5,5,0,0,1,107.88,156.52Z"/><path class="cls-11" d="M96.66,174.35,73.12,160.76a2.44,2.44,0,0,1-1-1.94v-1.75c0-.75.46-1.09,1-.77l23.54,13.59a2.44,2.44,0,0,1,1,1.94v1.75C97.67,174.33,97.22,174.67,96.66,174.35Z"/><path class="cls-13" d="M161.2,121.16h0V100.83l-25.69,3.43L116.27,93.15a13.5,13.5,0,0,0-12.22,0l-3,1.9-41.71,5.56v20.7h0a4.34,4.34,0,0,0,2.51,3.42l42.4,24.48a13.5,13.5,0,0,0,12.22,0l42.17-24.52a4.34,4.34,0,0,0,2.51-3.4h0Z"/><path class="cls-14" d="M158.67,97.15l-42.4-24.48a13.5,13.5,0,0,0-12.22,0L61.88,97.2c-3.37,1.95-3.37,5.11,0,7.05l42.4,24.48a13.5,13.5,0,0,0,12.22,0l42.17-24.52C162,102.26,162,99.1,158.67,97.15Z"/><path class="cls-12" d="M138.48,98.63l-24.7-14.26a7.87,7.87,0,0,0-7.12,0L82.08,98.66c-2,1.14-2,3,0,4.11L106.78,117a7.87,7.87,0,0,0,7.12,0l24.57-14.29C140.44,101.61,140.44,99.77,138.48,98.63Z"/><path class="cls-11" d="M158.67,103,116.5,127.5a13.5,13.5,0,0,1-12.22,0L61.88,103a4.68,4.68,0,0,1-2.46-2.91c-.32,1.47.5,3,2.46,4.14l42.4,24.48a13.5,13.5,0,0,0,12.22,0l42.17-24.52c2-1.13,2.77-2.67,2.46-4.14A4.68,4.68,0,0,1,158.67,103Z"/><polygon class="cls-11" points="122.2 134.15 120.19 135.31 120.19 132.99 122.2 131.84 122.2 134.15"/><polygon class="cls-11" points="126.4 131.73 124.39 132.89 124.39 130.57 126.4 129.41 126.4 131.73"/><polygon class="cls-11" points="130.6 129.3 128.59 130.46 128.59 128.15 130.6 126.99 130.6 129.3"/><polygon class="cls-11" points="127.16 135.98 125.16 137.14 125.16 134.82 127.16 133.66 127.16 135.98"/><polygon class="cls-11" points="130.86 133.85 128.85 135.01 128.85 132.69 130.86 131.53 130.86 133.85"/><polygon class="cls-11" points="144.06 121.53 142.06 122.69 142.06 120.37 144.06 119.21 144.06 121.53"/><polygon class="cls-11" points="155.63 114.85 153.63 116.01 153.63 113.69 155.63 112.53 155.63 114.85"/><polygon class="cls-11" points="134.8 126.88 132.79 128.04 132.79 125.72 134.8 124.56 134.8 126.88"/><path class="cls-15" d="M161.2,83h0V62.69l-25.69,3.43L116.27,55a13.5,13.5,0,0,0-12.22,0l-3,1.9L59.36,62.48v20.7h0a4.34,4.34,0,0,0,2.51,3.42l42.4,24.48a13.5,13.5,0,0,0,12.22,0l42.17-24.52a4.34,4.34,0,0,0,2.51-3.4h0Z"/><path class="cls-16" d="M158.67,59l-42.4-24.48a13.5,13.5,0,0,0-12.22,0L61.88,59.06c-3.37,1.95-3.37,5.11,0,7.05l42.4,24.48a13.5,13.5,0,0,0,12.22,0l42.17-24.52C162,64.12,162,61,158.67,59Z"/><path class="cls-17" d="M158.67,59l-42.4-24.48a13.5,13.5,0,0,0-12.22,0L61.88,59.06c-3.37,1.95-3.37,5.11,0,7.05l42.4,24.48a13.5,13.5,0,0,0,12.22,0l42.17-24.52C162,64.12,162,61,158.67,59Z"/><path class="cls-18" d="M110.35,82.66a8.8,8.8,0,0,1-4.32-1L77.94,65.39a3,3,0,0,1,0-5.63l27.94-16.25a9.43,9.43,0,0,1,8.65,0l28.09,16.22a3,3,0,0,1,0,5.63L114.68,81.61A8.8,8.8,0,0,1,110.35,82.66Zm-.15-39.09a7.72,7.72,0,0,0-3.77.9L78.49,60.72a1.94,1.94,0,0,0,0,3.72l28.09,16.22a8.35,8.35,0,0,0,7.54,0l27.94-16.25a1.94,1.94,0,0,0,0-3.72L114,44.47A7.72,7.72,0,0,0,110.2,43.57Z"/><path class="cls-11" d="M158.67,64.84,116.5,89.36a13.5,13.5,0,0,1-12.22,0L61.88,64.88A4.68,4.68,0,0,1,59.43,62c-.32,1.47.5,3,2.46,4.14l42.4,24.48a13.5,13.5,0,0,0,12.22,0l42.17-24.52c2-1.13,2.77-2.67,2.46-4.14A4.68,4.68,0,0,1,158.67,64.84Z"/><polygon class="cls-11" points="122.2 96.02 120.19 97.18 120.19 94.86 122.2 93.7 122.2 96.02"/><polygon class="cls-11" points="126.4 93.59 124.39 94.75 124.39 92.43 126.4 91.28 126.4 93.59"/><polygon class="cls-11" points="130.6 91.17 128.59 92.33 128.59 90.01 130.6 88.85 130.6 91.17"/><polygon class="cls-11" points="127.16 97.85 125.16 99.01 125.16 96.69 127.16 95.53 127.16 97.85"/><polygon class="cls-11" points="130.86 95.71 128.85 96.87 128.85 94.55 130.86 93.39 130.86 95.71"/><polygon class="cls-11" points="144.06 83.39 142.06 84.55 142.06 82.23 144.06 81.07 144.06 83.39"/><polygon class="cls-11" points="155.63 76.71 153.63 77.87 153.63 75.56 155.63 74.4 155.63 76.71"/><polygon class="cls-11" points="134.8 88.74 132.79 89.9 132.79 87.58 134.8 86.43 134.8 88.74"/><path class="cls-6" d="M117.64,139.59q-4.16.11-8.4.08c-22.11-.18-42.59-3.39-59.68-8.77-17.07-4.56-18.11,13.3-12.15,24.34,4.24,7.86,10,10,12.15,10.82,17.09,5.38,37.57,8.59,59.68,8.77q4.24,0,8.4-.08C137.7,173.27,143,154,133.58,145c-2.62-2.51-7.51-5.49-15.94-5.42Z"/><g class="cls-19"><path class="cls-5" d="M221.52,117.69l-.31-.61a25.24,25.24,0,0,1-1-2.44c-3.73-10.89-14.62-20.76-31.51-28.56-11.74-6.67-14.58-16.3-15.26-20.14h0c-.8-4.53.11-10.94,4-14.32,2.85-2.48,6.73-3,11.54-1.4,17.12,7.9,28.15,17.93,31.95,29,.8,3.13,1.42,5.57,1.43,16.63V114.6c0,1.64,0,1.74-.47,2.51ZM174.18,65.81c.66,3.73,3.43,13.1,14.86,19.6,17.05,7.87,28.08,17.9,31.88,29,.23.63.44,1.17.63,1.61a10.83,10.83,0,0,0,0-1.4V95.85c0-11-.62-13.36-1.39-16.41-3.72-10.85-14.61-20.73-31.5-28.52-4.5-1.45-8.14-1-10.77,1.27-3.67,3.19-4.51,9.3-3.75,13.63Z"/><path class="cls-5" d="M.75,122.87l-.75,0V87.68q0-.47,0-.94C.23,80.92,2.45,75.21,6.61,69.8l.16-.16c.8-.79,1.89-1.87,3-2,1.51-.22,2.86.55,3.9,2.21,3.46,5.54,3.15,21.4-6.47,35.59C1.6,113,1.23,117.36.75,122.87Zm9.53-54.56-.38,0a6,6,0,0,0-2.6,1.83l-.13.12C3.15,75.55,1,81.1.77,86.77c0,.31,0,.61,0,.91v29.24c.72-3.42,2.2-7,5.85-12C16,91,16.41,75.57,13.05,70.2A3.46,3.46,0,0,0,10.28,68.31Z"/></g><path class="cls-5" d="M8.76,141.17c-.93,0-2.14-.49-3.48-2.31-4.57-6.25-5-12.35-5.28-16V87.68H.75A27.53,27.53,0,0,0,5.9,103.26c7.5,12.41,8.39,24.65,7.73,29.93h0c-.54,4.33-2.15,7.36-4.21,7.89A2.63,2.63,0,0,1,8.76,141.17Zm-8-47.35v29c.26,3.53.69,9.49,5.14,15.57.79,1.08,2,2.29,3.34,1.94,1.73-.45,3.16-3.3,3.65-7.25h0c.64-5.18-.23-17.22-7.62-29.43A30.61,30.61,0,0,1,.75,93.81Z"/><path class="cls-5" d="M111.17,175.21h-1.93C87.83,175,67.15,172,49.44,166.42c-2.22-.83-8.06-3-12.37-11-3.56-6.59-5-16.55-.68-22,1.9-2.41,5.75-4.86,13.26-2.85,17.65,5.56,38.25,8.58,59.59,8.76,2.8,0,5.62,0,8.39-.08h0c8.56,0,13.54,3,16.2,5.52a16,16,0,0,1,3.57,17.05c-2.75,7.64-10.13,12.63-19.74,13.33C115.52,175.19,113.34,175.21,111.17,175.21ZM44.54,130.55a9.13,9.13,0,0,0-7.55,3.3c-4.12,5.22-2.69,14.83.76,21.21,4.18,7.73,9.82,9.85,11.95,10.65,17.62,5.54,38.22,8.57,59.55,8.75,2.81,0,5.63,0,8.39-.08,9.29-.69,16.43-5.48,19.07-12.84a15.28,15.28,0,0,0-3.38-16.26c-2.54-2.43-7.26-5.32-15.4-5.32h-.28c-2.78.08-5.61.1-8.41.08-21.41-.17-42.08-3.21-59.79-8.79A19.16,19.16,0,0,0,44.54,130.55Z"/><path class="cls-5" d="M181,162.36a10.22,10.22,0,0,1-8.25-3.68c-3.84-4.69-3.93-13.2-.22-20.24a30.2,30.2,0,0,1,13.14-12.7c17.52-7.52,29.19-17.2,33.78-28a17.9,17.9,0,0,1,1.33-2.45l.09-.14.85-.11.1.29c.3.86.43,1.21.47,5.42v10.82c-.1,15.26-1,18.05-2.14,21.59-4.67,11-16.48,20.85-34.16,28.43A17.71,17.71,0,0,1,181,162.36Zm40.24-66.42a19.63,19.63,0,0,0-1.1,2.09c-4.66,11-16.46,20.8-34.14,28.38a29.47,29.47,0,0,0-12.8,12.37c-3.58,6.78-3.52,14.95.13,19.41,1.91,2.33,5.61,4.68,12.41,2.67,17.45-7.49,29.12-17.17,33.71-28,1.11-3.44,2-6.18,2.09-21.33V100.74C221.54,97.35,221.46,96.56,221.27,95.95Z"/><path class="cls-5" d="M187.67,216.13a5.77,5.77,0,0,1-2.83-.69L166.58,204.9a2,2,0,0,1,0-3.72l18.17-10.56a6.18,6.18,0,0,1,5.66,0l18.26,10.54a2,2,0,0,1,0,3.72L190.5,215.44A5.77,5.77,0,0,1,187.67,216.13Zm-.1-25.41a5,5,0,0,0-2.43.58L167,201.86a1.22,1.22,0,0,0,0,2.36l18.26,10.54a5.38,5.38,0,0,0,4.87,0l18.17-10.56a1.22,1.22,0,0,0,0-2.36L190,191.3A5,5,0,0,0,187.57,190.72Z"/><path class="cls-5" d="M32.77,216.13a5.77,5.77,0,0,1-2.83-.69L11.68,204.9a2,2,0,0,1,0-3.72l18.17-10.56a6.17,6.17,0,0,1,5.66,0l18.26,10.54a2,2,0,0,1,0,3.72L35.6,215.44A5.77,5.77,0,0,1,32.77,216.13Zm-.1-25.41a5,5,0,0,0-2.43.58L12.08,201.86a1.22,1.22,0,0,0,0,2.36l18.26,10.54a5.38,5.38,0,0,0,4.87,0L53.37,204.2a1.22,1.22,0,0,0,0-2.36L35.11,191.3A5,5,0,0,0,32.68,190.72Z"/><g class="cls-20"><path class="cls-5" d="M187.67,207.9a5.77,5.77,0,0,1-2.83-.69l-18.26-10.54a2,2,0,0,1,0-3.72l18.17-10.56a6.17,6.17,0,0,1,5.66,0l18.26,10.54a2,2,0,0,1,0,3.72L190.5,207.21A5.77,5.77,0,0,1,187.67,207.9Zm-.1-25.41a5,5,0,0,0-2.43.58L167,193.63a1.22,1.22,0,0,0,0,2.36l18.26,10.54a5.38,5.38,0,0,0,4.87,0L208.27,196a1.22,1.22,0,0,0,0-2.36L190,183.06A5,5,0,0,0,187.57,182.48Z"/><path class="cls-5" d="M32.77,207.9a5.77,5.77,0,0,1-2.83-.69L11.68,196.67a2,2,0,0,1,0-3.72l18.17-10.56a6.17,6.17,0,0,1,5.66,0l18.26,10.54a2,2,0,0,1,0,3.72L35.6,207.21A5.77,5.77,0,0,1,32.77,207.9Zm-.1-25.41a5,5,0,0,0-2.43.58L12.08,193.63a1.22,1.22,0,0,0,0,2.36l18.26,10.54a5.38,5.38,0,0,0,4.87,0L53.37,196a1.22,1.22,0,0,0,0-2.36L35.11,183.06A5,5,0,0,0,32.68,182.48Z"/></g><circle class="cls-8" cx="31.22" cy="94.75" r="3.96"/><circle class="cls-21" cx="31.22" cy="94.75" r="1.94"/><circle class="cls-8" cx="212.42" cy="183.66" r="1.94"/><circle class="cls-21" cx="212.42" cy="183.66" r="0.95"/><circle class="cls-8" cx="193.48" cy="3.28" r="3.28"/><circle class="cls-21" cx="193.48" cy="3.28" r="1.61"/></g></g></svg>